<?xml version="1.0" standalone="no"?>
<!DOCTYPE svg PUBLIC "-//W3C//DTD SVG 20010904//EN"
 "http://www.w3.org/TR/2001/REC-SVG-20010904/DTD/svg10.dtd">
<svg version="1.0" xmlns="http://www.w3.org/2000/svg"
 width="905.000000pt" height="1280.000000pt" viewBox="0 0 905.000000 1280.000000"
 preserveAspectRatio="xMidYMid meet">
<g transform="translate(0.000000,1280.000000) scale(0.100000,-0.100000)"
fill="#000000" stroke="none">
<path d="M990 10782 c-6 -2 -10 -44 -10 -98 0 -89 1 -94 23 -98 12 -3 69 -12
125 -21 458 -72 933 -284 1168 -519 44 -44 89 -93 98 -108 18 -27 17 -28 -19
-87 -183 -302 -300 -773 -280 -1131 20 -370 86 -618 214 -802 84 -122 249
-270 368 -331 66 -35 63 -14 63 -395 0 -191 -4 -384 -10 -430 -15 -129 -63
-216 -137 -248 -42 -18 -167 -18 -229 1 -27 8 -52 11 -57 6 -5 -5 -1 -49 7
-99 40 -233 137 -377 283 -422 36 -11 80 -20 98 -20 21 0 35 -6 39 -16 11 -28
6 -1981 -5 -2109 -36 -422 -166 -656 -419 -754 -89 -35 -169 -50 -305 -59
l-100 -7 -3 -146 -3 -145 116 -136 c63 -75 125 -138 138 -142 12 -3 636 -6
1387 -6 1049 0 1369 3 1378 12 15 15 16 171 1 201 -6 12 -63 102 -126 199
l-115 176 -51 7 c-141 19 -286 90 -361 176 -54 62 -112 188 -136 294 -34 156
-41 411 -38 1384 l3 914 64 13 c67 14 100 31 139 73 59 63 112 223 112 336 l0
62 -52 11 c-29 6 -65 15 -80 21 -46 17 -105 79 -128 134 -54 125 -53 113 -57
711 l-4 558 44 57 c117 148 246 378 321 570 50 125 92 296 112 444 19 147 14
402 -11 516 -89 404 -331 676 -663 746 -88 19 -260 19 -342 -1 -89 -20 -232
-92 -308 -154 -129 -106 -232 -265 -268 -415 -11 -45 -17 -111 -17 -185 0 -96
4 -128 25 -191 54 -164 167 -278 331 -333 9 -3 17 -10 17 -15 0 -33 -589 -351
-624 -338 -14 5 -16 30 -16 159 0 539 152 970 445 1263 208 209 452 332 764
386 90 16 197 22 476 30 858 25 1162 -35 1322 -258 86 -121 133 -288 154 -553
13 -165 28 -2439 17 -2611 -8 -126 -29 -214 -71 -292 -57 -108 -147 -154 -279
-145 l-68 5 0 -35 c0 -107 79 -296 160 -386 68 -73 107 -96 193 -110 l72 -12
0 -990 c0 -1105 1 -1094 -71 -1314 -48 -147 -102 -240 -193 -331 -124 -123
-253 -178 -471 -203 l-105 -12 -3 -136 -3 -136 91 -138 c50 -77 97 -142 105
-146 7 -5 649 -7 1427 -6 l1413 3 3 97 3 97 -116 185 c-111 178 -117 186 -153
191 -79 13 -219 57 -274 87 -148 79 -231 238 -275 528 -16 104 -18 213 -18
1145 l0 1030 53 6 c141 18 236 168 249 392 6 92 5 97 -14 97 -46 0 -123 32
-164 69 -55 48 -96 129 -115 227 -25 132 -47 2612 -25 2829 34 335 113 562
244 701 54 58 157 124 193 124 26 0 21 18 -23 81 -59 84 -127 223 -160 327
-14 46 -31 85 -37 87 -14 5 -6432 11 -6446 7z m6396 -80 c6 -4 26 -41 43 -82
31 -72 83 -173 130 -252 l23 -37 -58 -37 c-194 -124 -305 -354 -361 -749 -16
-118 -18 -194 -15 -844 4 -993 19 -2026 31 -2089 35 -191 102 -281 242 -327
27 -9 51 -20 54 -25 9 -14 -22 -145 -44 -189 -51 -100 -132 -155 -219 -150
l-47 3 -3 -889 c-4 -1282 11 -1502 124 -1730 82 -167 199 -252 423 -305 47
-10 93 -27 102 -37 9 -10 58 -82 108 -161 91 -142 92 -144 89 -200 l-3 -57
-1370 -2 c-753 -2 -1375 1 -1381 5 -6 4 -45 56 -88 116 l-77 109 3 101 3 101
105 13 c189 23 331 86 445 197 149 144 235 344 282 652 16 107 18 209 18 1123
l0 1005 -76 1 c-144 2 -234 54 -288 167 -31 64 -58 175 -48 200 4 10 29 16 90
19 68 3 93 9 129 31 84 49 131 127 165 273 17 75 18 153 15 1369 -3 1273 -8
1503 -38 1677 -61 357 -213 533 -527 608 -128 31 -345 52 -547 54 -288 2 -797
-12 -875 -24 -363 -56 -645 -196 -871 -433 -294 -308 -446 -752 -448 -1309
l-1 -187 -57 -22 c-32 -12 -58 -26 -58 -31 0 -6 26 -39 59 -73 107 -115 159
-241 164 -395 2 -101 -4 -104 -83 -44 -140 107 -270 363 -315 619 -68 390 -25
771 120 1070 227 468 644 794 1194 935 204 52 288 60 721 72 584 16 870 -2
1073 -69 284 -94 456 -368 507 -808 12 -105 33 -2189 27 -2680 -3 -277 -7
-340 -22 -395 -37 -135 -106 -231 -193 -267 -21 -9 -67 -15 -114 -15 -57 0
-78 -3 -78 -12 0 -28 73 -156 103 -182 59 -50 114 -68 207 -68 104 0 160 25
233 103 88 94 119 209 93 346 -10 51 -12 83 -6 89 5 5 12 7 15 5 11 -12 25
-116 25 -189 0 -205 -68 -335 -206 -396 l-53 -23 -4 -1088 c-2 -967 -5 -1098
-20 -1178 -95 -514 -337 -753 -787 -778 l-45 -2 0 -45 0 -45 1315 0 1315 0 3
24 c2 12 1 34 -2 47 -5 20 -13 24 -44 24 -58 0 -160 19 -232 42 -291 93 -459
312 -542 706 -23 107 -23 109 -25 1172 -2 586 -5 1075 -8 1087 -3 13 -22 30
-50 43 -131 63 -246 291 -232 456 7 70 36 155 56 162 12 4 12 -8 5 -69 -13
-109 -9 -236 9 -300 22 -76 63 -128 128 -164 48 -26 64 -30 139 -30 72 0 92 4
130 25 55 30 98 108 102 185 l3 50 -58 2 c-31 2 -70 9 -86 17 -68 36 -110 128
-131 291 -15 112 -41 2728 -29 2915 31 504 151 838 373 1036 36 32 66 64 66
70 0 6 -14 14 -31 18 -40 8 -5742 8 -5763 0 -9 -3 -16 -14 -16 -23 0 -13 17
-22 62 -35 86 -24 233 -79 361 -136 l107 -48 58 29 c62 33 218 65 260 54 36
-9 17 -22 -67 -45 -78 -22 -165 -62 -177 -82 -4 -7 0 -16 11 -22 65 -38 169
-112 218 -156 l57 -52 44 45 c65 67 186 131 186 99 0 -5 -30 -33 -66 -63 -64
-52 -114 -108 -114 -127 0 -4 12 -19 26 -33 14 -13 34 -39 46 -57 27 -43 19
-80 -33 -157 -89 -132 -184 -364 -235 -570 -99 -408 -58 -867 109 -1200 81
-163 201 -306 312 -370 40 -24 61 -55 36 -55 -21 0 -143 91 -212 160 -159 157
-261 372 -315 665 -25 138 -30 462 -9 605 43 296 139 567 277 783 l50 77 -43
56 c-110 142 -314 295 -549 408 -229 111 -430 173 -709 220 -141 24 -169 37
-142 70 12 15 301 16 3160 16 1730 0 3151 -4 3157 -8z m-3459 -723 c119 -30
206 -81 304 -179 305 -303 363 -817 154 -1376 -126 -335 -336 -639 -530 -768
-86 -58 -89 -56 -93 40 l-3 82 64 45 c322 230 587 813 587 1293 0 223 -47 395
-150 552 -139 210 -318 301 -573 290 -93 -4 -126 -10 -194 -36 -196 -73 -346
-227 -406 -417 -30 -96 -31 -265 -2 -345 29 -80 104 -153 174 -170 66 -16 146
-8 198 18 120 62 211 246 201 409 -11 162 -112 249 -249 213 -52 -14 -115 -74
-148 -143 -13 -26 -28 -47 -33 -47 -16 0 -3 85 23 155 40 108 171 211 319 250
64 17 215 19 280 4 199 -46 366 -239 435 -504 9 -33 18 -112 22 -175 19 -378
-129 -828 -374 -1133 -58 -72 -149 -151 -164 -141 -23 14 -3 44 70 112 199
181 331 431 401 757 30 139 39 428 16 535 -37 178 -158 349 -290 411 -113 53
-296 51 -378 -4 -47 -32 -47 -51 1 -65 89 -27 179 -145 201 -264 11 -57 0
-204 -17 -232 -14 -22 -205 -196 -268 -243 -59 -45 -61 -45 -121 -40 -209 16
-354 199 -356 447 -1 161 35 277 126 404 107 151 281 258 461 286 80 12 222 3
312 -21z m18 -343 c88 -44 150 -108 201 -211 46 -93 63 -161 70 -275 6 -115
-2 -136 -41 -100 -35 32 -74 111 -115 230 -17 52 -34 97 -37 100 -2 2 -35 -28
-73 -69 -37 -40 -72 -71 -78 -67 -5 3 -12 45 -15 93 -7 123 -36 192 -109 266
-32 32 -55 63 -52 69 4 7 38 9 91 5 71 -4 97 -11 158 -41z m78 -448 c12 -29
39 -86 59 -126 l38 -73 -19 -57 c-37 -108 -71 -352 -71 -501 0 -65 -2 -71 -57
-161 -68 -109 -186 -240 -202 -225 -12 12 -2 190 25 430 30 267 74 441 154
600 22 44 40 83 40 87 0 23 -33 0 -100 -68 -313 -317 -708 -590 -1040 -718
-52 -20 -108 -42 -123 -49 l-28 -12 34 -45 c47 -62 73 -115 99 -207 23 -77 23
-82 23 -723 l0 -645 -26 -77 c-56 -163 -139 -229 -288 -229 -94 0 -97 -3 -56
-86 31 -62 82 -116 138 -145 63 -34 193 -33 260 2 96 49 168 155 189 280 11
65 10 75 -11 138 -27 78 -26 117 4 117 28 0 43 -61 44 -180 2 -211 -73 -368
-201 -425 l-47 -21 -3 -1137 c-4 -1137 -4 -1137 -27 -1261 -89 -482 -318 -720
-718 -749 l-98 -7 0 -40 0 -40 1290 0 1290 0 0 40 0 40 -98 7 c-346 25 -542
194 -660 574 -73 233 -77 308 -77 1508 l0 1052 -45 12 c-88 23 -168 124 -209
262 -33 109 -15 333 29 370 25 21 29 -13 10 -97 -44 -199 24 -382 167 -443 73
-31 178 -26 236 12 51 34 91 101 99 166 l6 51 -56 0 c-69 0 -108 19 -147 73
-74 102 -92 244 -88 712 l3 339 55 30 c30 16 84 52 119 79 34 28 67 46 71 41
5 -4 11 -253 13 -553 3 -483 5 -552 21 -605 37 -126 113 -211 220 -244 l61
-19 -1 -49 c-2 -56 -37 -138 -84 -195 -39 -47 -121 -88 -177 -88 l-43 0 0
-1012 c0 -557 5 -1077 10 -1155 16 -228 55 -375 131 -493 93 -144 216 -221
411 -260 l58 -11 110 -167 c107 -162 110 -169 108 -217 l-3 -50 -1331 -3
-1332 -2 -59 67 c-33 38 -81 94 -106 126 -47 58 -47 58 -47 135 0 42 4 82 8
88 4 6 52 14 108 18 221 15 357 68 474 186 83 83 128 163 173 306 73 231 77
311 77 1527 l0 1057 -35 0 c-176 0 -311 113 -369 309 -25 85 -28 82 69 75 114
-9 166 6 226 66 55 55 84 124 99 242 7 55 10 278 8 663 -3 513 -6 587 -21 638
-28 95 -59 158 -104 214 -24 29 -43 56 -43 60 0 5 64 36 143 70 242 107 528
270 715 410 117 87 319 271 409 371 35 39 72 72 80 72 8 0 24 -22 36 -52z
m142 -405 c-10 -35 -21 -63 -26 -63 -10 0 -3 44 19 120 23 79 29 26 7 -57z
m-792 -2552 c30 -12 45 -49 26 -63 -16 -10 -174 -7 -184 4 -12 12 4 56 23 61
32 9 110 7 135 -2z m3207 -84 c14 -7 26 -20 28 -28 2 -13 -13 -17 -89 -22
-124 -9 -221 -8 -237 1 -17 11 -4 42 22 52 34 14 247 12 276 -3z m-3100 -157
c11 -11 20 -24 20 -30 0 -13 -367 -14 -375 0 -3 5 3 18 15 30 18 18 32 20 170
20 137 0 152 -2 170 -20z m3188 -92 l3 -28 -221 0 c-188 0 -221 2 -226 15 -4
8 -1 22 6 30 11 13 46 15 224 13 l211 -3 3 -27z m-3148 -123 c7 -8 10 -22 6
-30 -5 -13 -38 -15 -221 -15 l-215 0 0 24 c0 13 6 27 13 29 6 3 100 6 208 6
162 1 199 -2 209 -14z m3145 -115 l0 -25 -216 -3 c-186 -2 -218 0 -223 13 -3
8 -3 22 0 30 5 13 37 15 223 13 l216 -3 0 -25z m-3145 -105 c6 -8 10 -22 8
-32 -3 -17 -19 -18 -218 -18 -199 0 -215 1 -218 18 -9 46 -4 47 211 47 167 0
207 -3 217 -15z m3145 -125 l0 -25 -211 -3 c-222 -3 -244 1 -228 42 6 15 29
16 223 14 l216 -3 0 -25z m-3145 -95 c6 -8 9 -23 5 -35 -6 -20 -12 -20 -218
-18 -195 3 -212 4 -215 21 -9 46 -4 47 211 47 167 0 207 -3 217 -15z m3134
-111 c21 -8 21 -40 0 -48 -9 -3 -105 -6 -214 -6 -169 0 -199 2 -211 16 -11 14
-10 18 6 30 14 11 63 14 211 14 106 0 199 -3 208 -6z m-3130 -110 c4 -9 4 -25
0 -36 -5 -17 -18 -18 -217 -16 -195 3 -212 4 -215 21 -9 46 -5 47 217 47 184
0 210 -2 215 -16z m3141 -144 l0 -25 -216 -3 c-194 -2 -217 -1 -223 14 -16 41
6 45 228 42 l211 -3 0 -25z m-3140 -80 c3 -6 3 -19 0 -30 -6 -19 -15 -20 -216
-20 -177 0 -211 2 -215 15 -4 8 -4 22 0 30 4 13 38 15 215 15 130 0 212 -4
216 -10z m3140 -150 l0 -25 -216 -3 c-194 -2 -217 -1 -223 14 -16 41 6 45 228
42 l211 -3 0 -25z m-3139 -75 c4 -8 1 -22 -6 -30 -11 -13 -45 -15 -219 -13
l-206 3 -3 28 -3 27 216 0 c183 0 216 -2 221 -15z m3139 -160 c0 -19 -8 -20
-209 -23 -211 -2 -242 2 -229 34 4 12 40 14 222 12 208 -3 216 -4 216 -23z
m-3138 -61 c3 -9 2 -24 -4 -33 -9 -14 -38 -16 -199 -19 -226 -3 -234 -2 -234
38 l0 30 215 0 c190 0 216 -2 222 -16z m3121 -140 c26 -7 31 -48 6 -58 -27
-10 -394 -7 -415 4 -26 14 -24 39 4 50 25 10 369 13 405 4z m-3120 -88 c8 -40
-21 -46 -219 -46 -103 0 -194 3 -203 6 -10 4 -16 18 -16 35 l0 29 217 -2 c206
-3 218 -4 221 -22z m3126 -142 c9 -3 16 -17 16 -30 l0 -24 -220 0 c-188 0
-221 2 -226 15 -4 8 -1 22 6 30 10 12 47 15 210 15 109 0 205 -3 214 -6z
m-3129 -84 l0 -25 -217 -3 -218 -2 0 30 0 30 218 -2 217 -3 0 -25z m3145 -165
c7 -8 10 -22 6 -30 -5 -13 -39 -15 -236 -15 -197 0 -231 2 -236 15 -4 8 -1 22
6 30 10 12 50 15 230 15 180 0 220 -3 230 -15z m-3145 -41 c35 -35 15 -39
-223 -42 -219 -2 -232 -1 -232 16 0 39 16 42 231 42 178 0 210 -2 224 -16z
m3180 -204 l0 -25 -263 -3 c-227 -2 -263 0 -268 13 -4 8 -4 22 0 30 5 13 41
15 268 13 l263 -3 0 -25z m-3145 -20 c6 -11 8 -25 5 -30 -4 -6 -107 -10 -266
-10 -223 0 -260 2 -265 15 -4 8 -1 22 6 30 10 13 53 15 261 15 239 0 249 -1
259 -20z m3209 -198 c21 -40 2 -42 -341 -42 -283 0 -329 2 -334 15 -4 8 -4 22
0 30 5 13 51 15 335 15 311 0 331 -1 340 -18z m-3148 -23 c11 -11 18 -26 16
-32 -5 -15 -665 -23 -680 -8 -7 7 -4 19 7 35 l16 26 310 0 c300 0 311 -1 331
-21z m3233 -205 c22 -22 20 -41 -6 -48 -31 -8 -648 -8 -770 1 -102 6 -115 14
-82 47 13 14 66 16 429 16 363 0 416 -2 429 -16z m-3150 -10 c9 -8 16 -24 16
-35 0 -18 -12 -19 -429 -19 -288 0 -432 3 -436 10 -4 6 1 22 9 35 l16 25 405
0 c354 0 406 -2 419 -16z"/>
</g>
</svg>
